mtllib new-6.mtl
v 0.113159 0.202958 0.418762
v 0.053177 0.232949 0.418762
v 0.611464 0.262940 0.418762
v 0.113159 0.202958 -0.181057
v -0.802164 0.232949 0.418762
v 0.551482 0.202958 0.418762
v -0.850150 0.262940 0.418762
v -0.802164 0.232949 -0.436580
v 0.053177 0.232949 -0.436580
v 0.611464 0.262940 -0.484565
v 0.551482 0.202958 -0.181057
v -0.850150 0.268938 0.418762
v -0.850150 0.262940 -0.484565
v 0.611464 0.268938 -0.484565
v 0.611464 0.268938 0.418762
v -0.176647 0.268938 0.127372
v -0.850150 0.268938 -0.484565
v 0.181084 0.268938 -0.111530
v 0.081074 0.268938 0.037863
v -0.298531 0.268938 0.127372
v -0.432143 0.268938 -0.111409
v -0.341746 0.268938 -0.184684
v 0.079801 0.268938 -0.179333
v -0.020209 0.268938 -0.029941
v -0.310260 0.268938 0.068368
v -0.298531 0.268938 -0.004906
v -0.432143 0.268938 0.068368
v -0.219863 0.268938 -0.184684
v -0.176647 0.268938 -0.052406
v -0.341746 0.268938 -0.111409
v -0.219863 0.268938 -0.052406
v -0.310260 0.268938 -0.004906
v -0.341746 0.268938 -0.004906
v -0.298531 0.268938 -0.052406
vn 0.000000 -1.000000 0.000000
vn 0.000000 1.000000 0.000000
vn 0.000000 0.000000 1.000000
vn 0.000000 0.000000 -1.000000
vt 2.634514 1.476378
vt 2.470472 1.558399
vt 2.470472 0.000000
vt 3.997308 1.640420
vt 0.131234 1.558399
vt 3.833266 1.476378
vt 0.000000 1.640420
vt -0.131234 0.131234
vt -2.470472 2.470472
vt -2.470472 0.131234
vt 0.000000 0.000000
vt 0.000000 3.997308
vt 2.470472 3.997308
vt -0.131234 2.470472
usemtl material-0
f 1//4 2//4 3//4
f 2//4 5//4 3//4
f 6//4 1//4 3//4
f 4//1 6//1 1//1
f 1//2 6//2 4//2
f 3//4 5//4 7//4
f 5//2 2//2 8//2
f 6//1 4//1 11//1
f 11//2 4//2 6//2
f 3//1 7//1 10//1
f 9//2 8//2 2//2
f 13//1 10//1 7//1
f 16//2 26//2 20//2
f 20//1 26//1 16//1
f 23//1 18//1 24//1
f 19//1 24//1 18//1
f 29//2 26//2 16//2
f 16//1 26//1 29//1
f 21//1 30//1 27//1
f 22//1 28//1 30//1
f 25//1 27//1 32//1
f 31//2 26//2 29//2
f 29//1 26//1 31//1
f 33//1 27//1 30//1
f 31//1 30//1 28//1
f 32//1 27//1 33//1
f 32//1 33//1 26//1
f 26//2 31//2 34//2
f 34//1 31//1 26//1
f 30//1 34//1 33//1
f 34//1 30//1 31//1
f 26//1 33//1 34//1
usemtl material-1
f 3/4/3 2/2/3 1/1/3
f 3/4/3 5/5/3 2/2/3
f 3/4/3 1/1/3 6/6/3
f 7/7/3 5/5/3 3/4/3
f 8/8/1 2/9/1 5/10/1
f 10/12/2 7/3/2 3/13/2
f 2/9/1 8/8/1 9/14/1
f 7/3/2 10/12/2 13/11/2
usemtl material-2
f 3//3 12//3 7//3
f 7//4 12//4 3//4
f 12//3 3//3 15//3
f 15//4 3//4 12//4
f 13//4 14//4 10//4
f 10//3 14//3 13//3
usemtl material-3
f 15//2 16//2 12//2
f 12//1 16//1 15//1
f 14//2 18//2 15//2
f 15//1 18//1 14//1
f 15//2 19//2 16//2
f 16//1 19//1 15//1
f 20//2 12//2 16//2
f 16//1 12//1 20//1
f 21//2 17//2 12//2
f 12//1 17//1 21//1
f 17//2 22//2 14//2
f 14//1 22//1 17//1
f 18//2 14//2 23//2
f 23//1 14//1 18//1
f 15//2 18//2 19//2
f 19//1 18//1 15//1
f 24//2 16//2 19//2
f 19//1 16//1 24//1
f 25//2 12//2 20//2
f 20//1 12//1 25//1
f 22//2 17//2 21//2
f 21//1 17//1 22//1
f 21//2 12//2 27//2
f 27//1 12//1 21//1
f 28//2 14//2 22//2
f 22//1 14//1 28//1
f 23//2 14//2 28//2
f 28//1 14//1 23//1
f 24//2 29//2 16//2
f 16//1 29//1 24//1
f 27//2 12//2 25//2
f 25//1 12//1 27//1
f 26//2 25//2 20//2
f 20//1 25//1 26//1
f 30//2 22//2 21//2
f 21//1 22//1 30//1
f 31//2 23//2 28//2
f 28//1 23//1 31//1
f 23//2 29//2 24//2
f 24//1 29//1 23//1
f 25//2 26//2 32//2
f 32//1 26//1 25//1
f 23//2 31//2 29//2
f 29//1 31//1 23//1
usemtl material-4
f 24//2 18//2 23//2
f 18//2 24//2 19//2
f 27//2 30//2 21//2
f 30//2 28//2 22//2
f 32//2 27//2 25//2
f 30//2 27//2 33//2
f 28//2 30//2 31//2
f 33//2 27//2 32//2
f 26//2 33//2 32//2
f 33//2 34//2 30//2
f 31//2 30//2 34//2
f 34//2 33//2 26//2