mtllib new-18.mtl
v 0.113159 -0.096952 0.568717
v 0.117358 -0.092753 0.568717
v 0.113159 0.023012 0.568717
v 0.551482 -0.096952 0.568717
v 0.117358 0.018814 0.568717
v 0.547284 -0.092753 0.568717
v 0.551482 0.023012 0.568717
v 0.547284 0.018814 0.568717
vn 0.000000 0.000000 1.000000
vn 0.000000 0.000000 -1.000000
vt 0.000000 0.000000
vt 0.011483 0.011483
vt 0.000000 0.328084
vt 1.198752 0.000000
vt 0.011483 0.316601
vt 1.187269 0.011483
vt 1.198752 0.328084
vt 1.187269 0.316601
usemtl material-0
f 1/1/1 2/2/1 3/3/1
f 2/2/1 1/1/1 4/4/1
f 5/5/1 3/3/1 2/2/1
f 2/2/1 4/4/1 6/6/1
f 3/3/1 5/5/1 7/7/1
f 6/6/1 5/5/1 2/2/1
f 6/6/1 4/4/1 8/8/1
f 7/7/1 5/5/1 8/8/1
f 5/5/1 6/6/1 8/8/1
f 7/7/1 8/8/1 4/4/1
usemtl material-1
f 3//2 2//2 1//2
f 4//2 1//2 2//2
f 2//2 3//2 5//2
f 6//2 4//2 2//2
f 7//2 5//2 3//2
f 2//2 5//2 6//2
f 8//2 4//2 6//2
f 8//2 5//2 7//2
f 8//2 6//2 5//2
f 4//2 8//2 7//2