mtllib new-5.mtl
v 0.551482 -0.156933 0.418762
v 0.113159 -0.156933 -0.181057
v 0.551482 -0.156933 -0.181057
v 0.113159 -0.156933 0.418762
v 0.113159 -0.096952 0.418762
v 0.551482 -0.096952 0.418762
v 0.551482 -0.096952 -0.181057
v 0.113159 -0.096952 -0.181057
vn 0.000000 -1.000000 0.000000
vn 0.000000 1.000000 0.000000
vn 0.000000 0.000000 1.000000
vn 0.000000 0.000000 -1.000000
vt 3.833266 0.492126
vt 2.634514 0.656168
vt 2.634514 0.492126
vt 3.833266 0.656168
usemtl material-0
f 1//1 2//1 3//1
f 2//1 1//1 4//1
f 3//2 2//2 1//2
f 4//2 1//2 2//2
f 4//4 5//4 1//4
f 6//4 1//4 5//4
f 7//2 5//2 6//2
f 6//1 5//1 7//1
f 5//2 7//2 8//2
f 8//1 7//1 5//1
usemtl material-1
f 1/1/3 5/2/3 4/3/3
f 5/2/3 1/1/3 6/4/3