mtllib new-3.mtl
v -0.802164 0.232949 0.418762
v -0.850150 0.262940 0.418762
v -0.802164 0.232949 -0.436580
v -0.850150 -0.336879 -0.484565
v -0.802164 -0.336879 0.418762
v -0.850150 0.268938 0.418762
v -0.802164 -0.336879 -0.436580
v -0.850150 -0.336879 0.418762
v -0.850150 0.262940 -0.484565
v -0.850150 0.268938 -0.484565
vn 0.000000 -1.000000 0.000000
vn 0.000000 1.000000 0.000000
vn 0.000000 0.000000 1.000000
vn 0.000000 0.000000 -1.000000
vn -1.000000 0.000000 0.000000
vn 1.000000 0.000000 0.000000
vt 2.470472 0.000000
vt 0.131234 1.558399
vt 0.131234 0.000000
vt 0.000000 1.640420
vt -2.470472 0.000000
vt 0.000000 0.000000
vt -0.131234 1.558399
vt -2.470472 1.558399
vt -0.131234 0.000000
vt 2.470472 1.640420
usemtl material-0
f 1//4 5//4 2//4
f 1//5 3//5 5//5
f 8//4 2//4 5//4
f 7//5 5//5 3//5
f 4//1 7//1 8//1
f 8//2 7//2 4//2
f 8//6 4//6 2//6
f 8//1 7//1 5//1
f 5//2 7//2 8//2
f 9//6 2//6 4//6
usemtl material-1
f 2/4/3 5/3/3 1/2/3
f 5/5/6 3/7/6 1/8/6
f 5/3/3 2/4/3 8/6/3
f 3/7/6 5/5/6 7/9/6
f 2/10/5 4/6/5 8/1/5
f 4/6/5 2/10/5 9/4/5
usemtl material-2
f 6//5 9//5 2//5
f 2//6 9//6 6//6
f 9//5 6//5 10//5
f 10//6 6//6 9//6