mtllib new-7.mtl
v 0.113159 -0.156933 -0.181057
v 0.551482 -0.156933 -0.181057
v 0.551482 -0.276897 -0.181057
v 0.113159 -0.276897 -0.181057
v 0.551482 -0.096952 -0.181057
v 0.113159 -0.096952 -0.181057
v 0.113159 0.023012 -0.181057
v 0.053177 -0.336879 -0.436580
v 0.551482 0.023012 -0.181057
v 0.113159 0.202958 -0.181057
v 0.611464 -0.336879 -0.484565
v 0.113159 0.082994 -0.181057
v -0.802164 0.232949 -0.436580
v 0.053177 0.232949 -0.436580
v -0.850150 -0.336879 -0.484565
v 0.611464 0.262940 -0.484565
v 0.551482 0.202958 -0.181057
v 0.551482 0.082994 -0.181057
v -0.802164 -0.336879 -0.436580
v -0.850150 0.262940 -0.484565
v 0.611464 0.268938 -0.484565
v -0.850150 0.268938 -0.484565
vn 0.000000 -1.000000 0.000000
vn 0.000000 1.000000 0.000000
vn 0.000000 0.000000 1.000000
vn 0.000000 0.000000 -1.000000
vt 2.470472 1.558399
vt 2.470472 0.000000
vt 0.131234 1.558399
vt 0.131234 0.000000
vt 0.000000 1.640420
vt 0.000000 0.000000
vt -3.997308 1.640420
vt -3.997308 0.000000
usemtl material-0
f 1//3 3//3 2//3
f 2//4 3//4 1//4
f 3//3 1//3 4//3
f 4//4 1//4 3//4
f 5//3 7//3 6//3
f 6//4 7//4 5//4
f 7//3 5//3 9//3
f 9//4 5//4 7//4
f 11//1 8//1 15//1
f 15//2 8//2 11//2
f 18//3 10//3 12//3
f 12//4 10//4 18//4
f 14//4 8//4 13//4
f 19//1 15//1 8//1
f 8//2 15//2 19//2
f 11//3 16//3 15//3
f 10//3 18//3 17//3
f 17//4 18//4 10//4
f 19//4 13//4 8//4
f 20//3 15//3 16//3
usemtl material-1
f 13/3/3 8/2/3 14/1/3
f 15/6/4 16/7/4 11/8/4
f 8/2/3 13/3/3 19/4/3
f 16/7/4 15/6/4 20/5/4
usemtl material-2
f 21//4 20//4 22//4
f 22//3 20//3 21//3